<svg id="visual" viewBox="0 0 1280 720" width="1280" height="720" xmlns="http://www.w3.org/2000/svg" xmlns:xlink="http://www.w3.org/1999/xlink" version="1.1"><path d="M0 73L85 73L85 95L171 95L171 123L256 123L256 131L341 131L341 116L427 116L427 73L512 73L512 116L597 116L597 73L683 73L683 123L768 123L768 102L853 102L853 131L939 131L939 116L1024 116L1024 80L1109 80L1109 80L1195 80L1195 95L1280 95L1280 123L1280 0L1280 0L1195 0L1195 0L1109 0L1109 0L1024 0L1024 0L939 0L939 0L853 0L853 0L768 0L768 0L683 0L683 0L597 0L597 0L512 0L512 0L427 0L427 0L341 0L341 0L256 0L256 0L171 0L171 0L85 0L85 0L0 0Z" fill="#dde6ed"></path><path d="M0 296L85 296L85 296L171 296L171 390L256 390L256 375L341 375L341 296L427 296L427 303L512 303L512 275L597 275L597 289L683 289L683 368L768 368L768 339L853 339L853 375L939 375L939 368L1024 368L1024 332L1109 332L1109 325L1195 325L1195 282L1280 282L1280 325L1280 121L1280 93L1195 93L1195 78L1109 78L1109 78L1024 78L1024 114L939 114L939 129L853 129L853 100L768 100L768 121L683 121L683 71L597 71L597 114L512 114L512 71L427 71L427 114L341 114L341 129L256 129L256 121L171 121L171 93L85 93L85 71L0 71Z" fill="#cdd9e1"></path><path d="M0 440L85 440L85 419L171 419L171 505L256 505L256 491L341 491L341 397L427 397L427 469L512 469L512 375L597 375L597 426L683 426L683 483L768 483L768 433L853 433L853 491L939 491L939 491L1024 491L1024 455L1109 455L1109 483L1195 483L1195 390L1280 390L1280 433L1280 323L1280 280L1195 280L1195 323L1109 323L1109 330L1024 330L1024 366L939 366L939 373L853 373L853 337L768 337L768 366L683 366L683 287L597 287L597 273L512 273L512 301L427 301L427 294L341 294L341 373L256 373L256 388L171 388L171 294L85 294L85 294L0 294Z" fill="#bdccd6"></path><path d="M0 527L85 527L85 505L171 505L171 570L256 570L256 548L341 548L341 491L427 491L427 570L512 570L512 455L597 455L597 491L683 491L683 541L768 541L768 534L853 534L853 570L939 570L939 555L1024 555L1024 527L1109 527L1109 570L1195 570L1195 447L1280 447L1280 491L1280 431L1280 388L1195 388L1195 481L1109 481L1109 453L1024 453L1024 489L939 489L939 489L853 489L853 431L768 431L768 481L683 481L683 424L597 424L597 373L512 373L512 467L427 467L427 395L341 395L341 489L256 489L256 503L171 503L171 417L85 417L85 438L0 438Z" fill="#adbfca"></path><path d="M0 721L85 721L85 721L171 721L171 721L256 721L256 721L341 721L341 721L427 721L427 721L512 721L512 721L597 721L597 721L683 721L683 721L768 721L768 721L853 721L853 721L939 721L939 721L1024 721L1024 721L1109 721L1109 721L1195 721L1195 721L1280 721L1280 721L1280 489L1280 445L1195 445L1195 568L1109 568L1109 525L1024 525L1024 553L939 553L939 568L853 568L853 532L768 532L768 539L683 539L683 489L597 489L597 453L512 453L512 568L427 568L427 489L341 489L341 546L256 546L256 568L171 568L171 503L85 503L85 525L0 525Z" fill="#9db2bf"></path></svg>